<svg width="23" height="19" viewBox="0 0 23 19" fill="none" xmlns="http://www.w3.org/2000/svg">
<path d="M0 2C0 0.895431 0.895431 0 2 0H21C22.1046 0 23 0.895431 23 2V17C23 18.1046 22.1046 19 21 19H2C0.89543 19 0 18.1046 0 17V2Z" fill="#363636"/>
<g clip-path="url(#clip0_22_5)">
<path d="M16.8182 10.2187V8.32808H14.9091V7.06767H16.8182V5.17704H18.0909V7.06767H20V8.32808H18.0909V10.2187H16.8182ZM11.0909 8.95829C10.3909 8.95829 9.79167 8.71146 9.29318 8.2178C8.7947 7.72413 8.54545 7.13069 8.54545 6.43746C8.54545 5.74423 8.7947 5.15078 9.29318 4.65712C9.79167 4.16346 10.3909 3.91663 11.0909 3.91663C11.7909 3.91663 12.3902 4.16346 12.8886 4.65712C13.3871 5.15078 13.6364 5.74423 13.6364 6.43746C13.6364 7.13069 13.3871 7.72413 12.8886 8.2178C12.3902 8.71146 11.7909 8.95829 11.0909 8.95829ZM6 14V12.2354C6 11.8783 6.0928 11.55 6.27841 11.2507C6.46402 10.9513 6.71061 10.7229 7.01818 10.5653C7.67576 10.2397 8.34394 9.99551 9.02273 9.83271C9.70152 9.6699 10.3909 9.5885 11.0909 9.5885C11.7909 9.5885 12.4803 9.6699 13.1591 9.83271C13.8379 9.99551 14.5061 10.2397 15.1636 10.5653C15.4712 10.7229 15.7178 10.9513 15.9034 11.2507C16.089 11.55 16.1818 11.8783 16.1818 12.2354V14H6ZM7.27273 12.7395H14.9091V12.2354C14.9091 12.1198 14.8799 12.0148 14.8216 11.9203C14.7633 11.8257 14.6864 11.7522 14.5909 11.6997C14.0182 11.4161 13.4402 11.2034 12.8568 11.0616C12.2735 10.9198 11.6848 10.8489 11.0909 10.8489C10.497 10.8489 9.90833 10.9198 9.325 11.0616C8.74167 11.2034 8.16364 11.4161 7.59091 11.6997C7.49545 11.7522 7.41856 11.8257 7.36023 11.9203C7.30189 12.0148 7.27273 12.1198 7.27273 12.2354V12.7395ZM11.0909 7.69788C11.4409 7.69788 11.7405 7.57446 11.9898 7.32763C12.239 7.0808 12.3636 6.78407 12.3636 6.43746C12.3636 6.09084 12.239 5.79412 11.9898 5.54729C11.7405 5.30046 11.4409 5.17704 11.0909 5.17704C10.7409 5.17704 10.4413 5.30046 10.192 5.54729C9.9428 5.79412 9.81818 6.09084 9.81818 6.43746C9.81818 6.78407 9.9428 7.0808 10.192 7.32763C10.4413 7.57446 10.7409 7.69788 11.0909 7.69788Z" fill="#E4E4E4"/>
</g>
<defs>
<clipPath id="clip0_22_5">
<rect width="14" height="11" fill="white" transform="translate(6 3)"/>
</clipPath>
</defs>
</svg>
