<svg width="97" height="22" fill="none" xmlns="http://www.w3.org/2000/svg"><path d="M7.56 15.288c0 1.632-.48 2.16-1.368 2.16-.864 0-1.296-.648-1.368-2.064H0v.12c0 3.792 2.568 5.928 6.024 5.928 2.856 0 4.656-1.416 5.472-3.12.408-.864.6-2.208.6-4.008V3.336H7.56v11.952ZM34.011 17.808c-.168.024-.36.024-.48.024-.696 0-1.392-.216-1.848-.624 1.032-1.464 1.464-3.072 1.464-5.112 0-4.8-4.08-9.096-9.48-9.096-5.304 0-9.336 4.248-9.336 9.504 0 4.896 4.392 8.952 9.384 8.952 1.824 0 3.36-.408 4.992-1.392.792.864 2.4 1.392 4.2 1.392.336 0 .528 0 1.104-.048v-3.6Zm-15.12-6.36c.552-2.784 2.352-4.464 4.776-4.464 2.928 0 4.944 2.232 4.944 5.016 0 .936-.144 1.824-.6 2.616-1.944-2.376-4.296-3.744-6.6-3.744-.936 0-1.656.24-2.52.6v-.024Zm6.816 5.592c-.6.312-1.344.432-2.04.432-1.752 0-3.48-1.152-4.32-3 .576-.192 1.008-.288 1.56-.288 1.824 0 3.168.768 4.8 2.856ZM50.168 21.096V3.336h-4.536v10.968c0 1.92-1.008 3.12-2.664 3.12-1.896 0-2.832-1.248-2.832-3.456V3.336H35.6v11.04c0 4.824 2.088 7.056 5.928 7.056 1.752 0 3.408-.768 4.272-2.112h.072v1.776h4.296ZM64.646 16.608c-.792.552-1.68.84-2.904.84-2.04 0-3.744-1.224-4.464-3.384h7.176V10.08H57.35c.768-1.92 2.376-3.096 4.368-3.096 1.248 0 2.112.312 2.952.792V3.528C63.734 3.168 62.894 3 61.742 3c-5.064 0-9.312 3.456-9.312 9.264 0 5.304 3.984 9.168 9.12 9.168 1.08 0 2.496-.264 3.096-.528v-4.296ZM81.004 21.096l-4.824-6.048c2.736-.48 4.416-2.784 4.416-5.592 0-2.52-1.344-4.608-3.264-5.472-.936-.408-2.352-.648-4.2-.648h-5.808v17.76h4.344V15.36h.048l4.104 5.736h5.184Zm-9.336-8.832V7.32h1.728c1.704 0 2.856.864 2.856 2.4 0 1.704-1.104 2.544-2.904 2.544h-1.68ZM90.79 21.096V14.64l5.256-11.304h-4.872l-2.664 7.128-2.64-7.128h-4.92l5.304 11.304v6.456h4.536Z" fill="#B50"/><path d="M7.56 13.288c0 1.632-.48 2.16-1.368 2.16-.864 0-1.296-.648-1.368-2.064H0v.12c0 3.792 2.568 5.928 6.024 5.928 2.856 0 4.656-1.416 5.472-3.12.408-.864.6-2.208.6-4.008V1.336H7.56v11.952ZM34.011 15.808c-.168.024-.36.024-.48.024-.696 0-1.392-.216-1.848-.624 1.032-1.464 1.464-3.072 1.464-5.112 0-4.8-4.08-9.096-9.48-9.096-5.304 0-9.336 4.248-9.336 9.504 0 4.896 4.392 8.952 9.384 8.952 1.824 0 3.36-.408 4.992-1.392.792.864 2.4 1.392 4.2 1.392.336 0 .528 0 1.104-.048v-3.6Zm-15.12-6.36c.552-2.784 2.352-4.464 4.776-4.464 2.928 0 4.944 2.232 4.944 5.016 0 .936-.144 1.824-.6 2.616-1.944-2.376-4.296-3.744-6.6-3.744-.936 0-1.656.24-2.52.6v-.024Zm6.816 5.592c-.6.312-1.344.432-2.04.432-1.752 0-3.48-1.152-4.32-3 .576-.192 1.008-.288 1.56-.288 1.824 0 3.168.768 4.8 2.856ZM50.168 19.096V1.336h-4.536v10.968c0 1.92-1.008 3.12-2.664 3.12-1.896 0-2.832-1.248-2.832-3.456V1.336H35.6v11.04c0 4.824 2.088 7.056 5.928 7.056 1.752 0 3.408-.768 4.272-2.112h.072v1.776h4.296ZM64.646 14.608c-.792.552-1.68.84-2.904.84-2.04 0-3.744-1.224-4.464-3.384h7.176V8.08H57.35c.768-1.92 2.376-3.096 4.368-3.096 1.248 0 2.112.312 2.952.792V1.528C63.734 1.168 62.894 1 61.742 1c-5.064 0-9.312 3.456-9.312 9.264 0 5.304 3.984 9.168 9.12 9.168 1.08 0 2.496-.264 3.096-.528v-4.296ZM81.004 19.096l-4.824-6.048c2.736-.48 4.416-2.784 4.416-5.592 0-2.52-1.344-4.608-3.264-5.472-.936-.408-2.352-.648-4.2-.648h-5.808v17.76h4.344V13.36h.048l4.104 5.736h5.184Zm-9.336-8.832V5.32h1.728c1.704 0 2.856.864 2.856 2.4 0 1.704-1.104 2.544-2.904 2.544h-1.68ZM90.79 19.096V12.64l5.256-11.304h-4.872L88.51 8.464l-2.64-7.128h-4.92l5.304 11.304v6.456h4.536Z" fill="#FD0"/><mask id="g" style="mask-type:alpha" maskUnits="userSpaceOnUse" x="0" y="1" width="97" height="19"><path d="M7.56 13.288c0 1.632-.48 2.16-1.368 2.16-.864 0-1.296-.648-1.368-2.064H0v.12c0 3.792 2.568 5.928 6.024 5.928 2.856 0 4.656-1.416 5.472-3.12.408-.864.6-2.208.6-4.008V1.336H7.56v11.952Z" fill="url(#a)"/><path d="M34.011 15.808c-.168.024-.36.024-.48.024-.696 0-1.392-.216-1.848-.624 1.032-1.464 1.464-3.072 1.464-5.112 0-4.8-4.08-9.096-9.48-9.096-5.304 0-9.336 4.248-9.336 9.504 0 4.896 4.392 8.952 9.384 8.952 1.824 0 3.36-.408 4.992-1.392.792.864 2.4 1.392 4.2 1.392.336 0 .528 0 1.104-.048v-3.6Zm-15.12-6.36c.552-2.784 2.352-4.464 4.776-4.464 2.928 0 4.944 2.232 4.944 5.016 0 .936-.144 1.824-.6 2.616-1.944-2.376-4.296-3.744-6.6-3.744-.936 0-1.656.24-2.52.6v-.024Zm6.816 5.592c-.6.312-1.344.432-2.04.432-1.752 0-3.48-1.152-4.32-3 .576-.192 1.008-.288 1.56-.288 1.824 0 3.168.768 4.8 2.856Z" fill="url(#b)"/><path d="M50.168 19.096V1.336h-4.536v10.968c0 1.92-1.008 3.12-2.664 3.12-1.896 0-2.832-1.248-2.832-3.456V1.336H35.6v11.04c0 4.824 2.088 7.056 5.928 7.056 1.752 0 3.408-.768 4.272-2.112h.072v1.776h4.296Z" fill="url(#c)"/><path d="M64.646 14.608c-.792.552-1.68.84-2.904.84-2.04 0-3.744-1.224-4.464-3.384h7.176V8.08H57.35c.768-1.92 2.376-3.096 4.368-3.096 1.248 0 2.112.312 2.952.792V1.528C63.734 1.168 62.894 1 61.742 1c-5.064 0-9.312 3.456-9.312 9.264 0 5.304 3.984 9.168 9.12 9.168 1.08 0 2.496-.264 3.096-.528v-4.296Z" fill="url(#d)"/><path d="m81.004 19.096-4.824-6.048c2.736-.48 4.416-2.784 4.416-5.592 0-2.52-1.344-4.608-3.264-5.472-.936-.408-2.352-.648-4.2-.648h-5.808v17.76h4.344V13.36h.048l4.104 5.736h5.184Zm-9.336-8.832V5.32h1.728c1.704 0 2.856.864 2.856 2.4 0 1.704-1.104 2.544-2.904 2.544h-1.68Z" fill="url(#e)"/><path d="M90.79 19.096V12.64l5.256-11.304h-4.872L88.51 8.464l-2.64-7.128h-4.92l5.304 11.304v6.456h4.536Z" fill="url(#f)"/></mask><g mask="url(#g)"><path d="M8.56 14.288c0 1.632-.48 2.16-1.368 2.16-.864 0-1.296-.648-1.368-2.064H1v.12c0 3.792 2.568 5.928 6.024 5.928 2.856 0 4.656-1.416 5.472-3.12.408-.864.6-2.208.6-4.008V2.336H8.56v11.952Z" fill="url(#h)"/><path d="M35.011 16.808c-.168.024-.36.024-.48.024-.696 0-1.392-.216-1.848-.624 1.032-1.464 1.464-3.072 1.464-5.112 0-4.8-4.08-9.096-9.48-9.096-5.304 0-9.336 4.248-9.336 9.504 0 4.896 4.392 8.952 9.384 8.952 1.824 0 3.36-.408 4.992-1.392.792.864 2.4 1.392 4.2 1.392.336 0 .528 0 1.104-.048v-3.6Zm-15.12-6.36c.552-2.784 2.352-4.464 4.776-4.464 2.928 0 4.944 2.232 4.944 5.016 0 .936-.144 1.824-.6 2.616-1.944-2.376-4.296-3.744-6.6-3.744-.936 0-1.656.24-2.52.6v-.024Zm6.816 5.592c-.6.312-1.344.432-2.04.432-1.752 0-3.48-1.152-4.32-3 .576-.192 1.008-.288 1.56-.288 1.824 0 3.168.768 4.8 2.856Z" fill="url(#i)"/><path d="M51.168 20.096V2.336h-4.536v10.968c0 1.92-1.008 3.12-2.664 3.12-1.896 0-2.832-1.248-2.832-3.456V2.336H36.6v11.04c0 4.824 2.088 7.056 5.928 7.056 1.752 0 3.408-.768 4.272-2.112h.072v1.776h4.296Z" fill="url(#j)"/><path d="M65.646 15.608c-.792.552-1.68.84-2.904.84-2.04 0-3.744-1.224-4.464-3.384h7.176V9.08H58.35c.768-1.92 2.376-3.096 4.368-3.096 1.248 0 2.112.312 2.952.792V2.528C64.734 2.168 63.894 2 62.742 2c-5.064 0-9.312 3.456-9.312 9.264 0 5.304 3.984 9.168 9.12 9.168 1.08 0 2.496-.264 3.096-.528v-4.296Z" fill="url(#k)"/><path d="m82.004 20.096-4.824-6.048c2.736-.48 4.416-2.784 4.416-5.592 0-2.52-1.344-4.608-3.264-5.472-.936-.408-2.352-.648-4.2-.648h-5.808v17.76h4.344V14.36h.048l4.104 5.736h5.184Zm-9.336-8.832V6.32h1.728c1.704 0 2.856.864 2.856 2.4 0 1.704-1.104 2.544-2.904 2.544h-1.68Z" fill="url(#l)"/><path d="M91.79 20.096V13.64l5.256-11.304h-4.872L89.51 9.464l-2.64-7.128h-4.92l5.304 11.304v6.456h4.536Z" fill="url(#m)"/></g><defs><linearGradient id="a" x1="96.046" y1="19.456" x2="96.046" y2="1" gradientUnits="userSpaceOnUse"><stop stop-color="#F90"/><stop offset="1" stop-color="#FD0"/></linearGradient><linearGradient id="b" x1="96.046" y1="19.456" x2="96.046" y2="1" gradientUnits="userSpaceOnUse"><stop stop-color="#F90"/><stop offset="1" stop-color="#FD0"/></linearGradient><linearGradient id="c" x1="96.046" y1="19.456" x2="96.046" y2="1" gradientUnits="userSpaceOnUse"><stop stop-color="#F90"/><stop offset="1" stop-color="#FD0"/></linearGradient><linearGradient id="d" x1="96.046" y1="19.456" x2="96.046" y2="1" gradientUnits="userSpaceOnUse"><stop stop-color="#F90"/><stop offset="1" stop-color="#FD0"/></linearGradient><linearGradient id="e" x1="96.046" y1="19.456" x2="96.046" y2="1" gradientUnits="userSpaceOnUse"><stop stop-color="#F90"/><stop offset="1" stop-color="#FD0"/></linearGradient><linearGradient id="f" x1="96.046" y1="19.456" x2="96.046" y2="1" gradientUnits="userSpaceOnUse"><stop stop-color="#F90"/><stop offset="1" stop-color="#FD0"/></linearGradient><linearGradient id="h" x1="97.046" y1="20.456" x2="97.046" y2="2" gradientUnits="userSpaceOnUse"><stop stop-color="#F90"/><stop offset="1" stop-color="#FD0"/></linearGradient><linearGradient id="i" x1="97.046" y1="20.456" x2="97.046" y2="2" gradientUnits="userSpaceOnUse"><stop stop-color="#F90"/><stop offset="1" stop-color="#FD0"/></linearGradient><linearGradient id="j" x1="97.046" y1="20.456" x2="97.046" y2="2" gradientUnits="userSpaceOnUse"><stop stop-color="#F90"/><stop offset="1" stop-color="#FD0"/></linearGradient><linearGradient id="k" x1="97.046" y1="20.456" x2="97.046" y2="2" gradientUnits="userSpaceOnUse"><stop stop-color="#F90"/><stop offset="1" stop-color="#FD0"/></linearGradient><linearGradient id="l" x1="97.046" y1="20.456" x2="97.046" y2="2" gradientUnits="userSpaceOnUse"><stop stop-color="#F90"/><stop offset="1" stop-color="#FD0"/></linearGradient><linearGradient id="m" x1="97.046" y1="20.456" x2="97.046" y2="2" gradientUnits="userSpaceOnUse"><stop stop-color="#F90"/><stop offset="1" stop-color="#FD0"/></linearGradient></defs></svg>